<?xml version="1.0" encoding="utf-8"?>
<!-- Generator: Adobe Illustrator 24.1.0, SVG Export Plug-In . SVG Version: 6.00 Build 0)  -->
<svg version="1.1" id="Capa_1" xmlns="http://www.w3.org/2000/svg" xmlns:xlink="http://www.w3.org/1999/xlink" x="0px" y="0px"
	 viewBox="0 0 931 798" style="enable-background:new 0 0 931 798;" xml:space="preserve">
<style type="text/css">
	.st0{fill:#FFFFFF;}
	.st1{fill:#169FE8;}
	.st2{fill:#09466E;}
	.st3{fill:#94C121;}
	.st4{fill:#0271B0;}
	.st5{fill:#17A0E8;}
</style>
<g>
	<g>
		<path class="st0" d="M467.6,7c152.24,0,304.48,0,456.72,0c0,261.68,0,523.36,0,785.04c-305.44,0-610.88,0-916.32,0
			C8,530.36,8,268.68,8,7c152.72,0,305.44,0,458.16,0c0.09,2.49-0.39,4.92-0.89,7.34c-0.8,3.82-0.93,7.75-2.05,11.52
			c-0.77,2.58-1.21,5.27-1.7,7.91c-0.66,3.62-1.64,7.15-2.54,10.69c-2.04,8.03-4.45,15.95-7.08,23.81
			c-1.64,4.91-3.35,9.78-5.27,14.58c-2.36,5.91-4.93,11.73-7.45,17.57c-0.95,2.2-1.9,4.41-3.06,6.49
			c-2.33,4.17-4.33,8.51-6.82,12.61c-3.31,5.45-6.28,11.1-9.95,16.33c-1.87,2.67-3.42,5.62-5.39,8.14
			c-3.52,4.51-7.14,8.97-10.94,13.26c-4.91,5.55-10.02,10.93-15.33,16.09c-4.28,4.16-8.5,8.38-13.07,12.24
			c-2.01,1.7-3.82,3.63-5.85,5.3c-2.07,1.7-3.63,3.88-5.81,5.5c-2.42,1.79-4.57,3.98-6.77,6.07c-1.56,1.49-2.88,3.23-4.55,4.55
			c-2.57,2.04-4.84,4.36-7.24,6.57c-1.94,1.79-3.45,3.99-5.36,5.78c-2.75,2.57-5.3,5.3-7.84,8.06c-1.36,1.48-2.25,3.28-3.57,4.7
			c-1.3,1.4-2.66,2.74-3.82,4.27c-3.99,5.29-7.89,10.63-11.26,16.35c-3.32,5.64-6.31,11.44-9.11,17.35
			c-2.01,4.25-3.74,8.62-5.31,13.05c-1.25,3.53-2.33,7.1-3.4,10.69c-0.94,3.13-1.93,6.26-2.49,9.46c-0.73,4.15-1.75,8.25-2.09,12.47
			c-0.22,2.7-0.81,5.37-0.88,8.07c-0.17,6.71-0.16,13.43-0.18,20.14c-0.01,2.24-0.13,4.51,0.22,6.7c1.27,7.93,1.98,15.94,4.03,23.77
			c1.68,6.4,3.49,12.74,5.7,18.97c1.19,3.36,2.56,6.66,3.89,9.98c1.66,4.15,3.61,8.14,5.55,12.14c1.39,2.86,2.98,5.63,4.61,8.38
			c1.86,3.15,3.66,6.36,5.77,9.33c3.42,4.8,7.01,9.48,10.81,14c6.2,7.37,13.19,13.88,20.56,20.01c5.09,4.23,10.64,7.84,16.22,11.38
			c3.56,2.26,7.27,4.26,11.01,6.22c5.43,2.85,11.01,5.39,16.69,7.68c2.8,1.13,5.72,1.97,8.54,3.02c7.64,2.84,15.52,4.78,23.43,6.64
			c5.51,1.29,11.08,2.2,16.71,2.81c2.69,0.29,5.37,0.83,8.06,0.93c4.95,0.18,9.91,0.12,14.86,0.15c1.76,0.01,3.52,0.09,5.27-0.01
			c1.27-0.07,1.77-1.04,0.94-1.95c-1.17-1.28-1.69-2.88-2.52-4.32c-1.92-3.31-3.88-6.61-5.51-10.06c-2.55-5.4-4.97-10.86-7.01-16.48
			c-2.53-6.98-4.68-14.07-6.12-21.34c-0.79-3.97-1.84-7.89-2.09-11.99c-0.23-3.88-0.89-7.74-1.18-11.63
			c-0.3-3.91-0.06-7.83-0.14-11.75c-0.11-6,0.77-11.92,1.44-17.85c0.57-5.06,1.62-10.05,2.77-15.02c1.94-8.39,4.45-16.58,7.59-24.6
			c3.06-7.82,7-15.18,11.29-22.36c2.61-4.38,5.15-8.8,8.12-12.95c2.41-3.37,4.01-7.22,6.44-10.57c3.89-5.36,7.1-11.14,10.32-16.92
			c3.99-7.17,7.73-14.47,11.04-21.98c1.96-4.44,3.82-8.92,5.42-13.51c1.09-3.15,2.05-6.36,3.17-9.49
			c1.93-5.42,3.12-11.02,4.52-16.56c1.64-6.48,2.63-13.09,3.51-19.74c1.01-7.6,1.53-15.22,1.74-22.86
			c0.24-8.7-0.23-17.38-0.88-26.06c-0.38-5.09-1.06-10.15-1.75-15.19c-0.98-7.16-2.68-14.2-4.05-21.3
			c-0.97-5.02-2.34-9.92-3.68-14.82c-1.85-6.76-3.89-13.48-6.25-20.07c-1.25-3.51-2.47-7.05-3.81-10.53
			c-1.77-4.61-3.51-9.23-5.44-13.77c-2.3-5.42-4.55-10.88-7.1-16.2c-3.47-7.26-6.79-14.59-10.55-21.7
			c-3.73-7.04-7.55-14.04-11.36-21.04C469.07,9.98,468.08,8.62,467.6,7z M308.68,764.09l-0.05-0.15l-0.16,0.01
			c-0.7-0.39-1.39-0.78-2.1-1.15c-83.92-43.94-167.83-87.87-251.75-131.81c-3.01-1.58-6.03-3.15-9.01-4.71
			c-8.75,9.24-33.37,37.69-34.21,39.54c0.9,0.32,1.8,0.65,2.7,0.96c86.09,28.74,172.17,57.47,258.26,86.2
			c12.19,4.07,24.39,8.1,36.59,12.14c1.32,0.78,2.81,1.03,4.66,1.56c-1.51-0.8-2.48-1.66-3.75-1.95c-0.06-0.1-0.15-0.15-0.27-0.14
			c-0.12-0.31-0.36-0.39-0.66-0.35C308.89,764.13,308.8,764.08,308.68,764.09z M626.23,762.71c0.31-0.08,0.62-0.16,0.92-0.26
			c24.24-8.08,48.47-16.15,72.71-24.24c73.75-24.61,147.5-49.23,221.24-73.87c0.71-0.24,1.6-0.22,2.12-1.05
			c-0.36-0.45-0.7-0.88-1.06-1.3c-10.38-11.84-20.76-23.68-31.15-35.52c-0.68-0.78-1.29-1.89-2.15-2.17
			c-0.88-0.28-1.8,0.76-2.69,1.23c-78.34,40.99-156.68,82-235.02,123.01c-8.77,4.59-17.52,9.23-26.29,13.85
			c-1.17,0.36-2.18,1-3.14,1.75C623.29,763.83,624.82,763.46,626.23,762.71z M564.57,772.81C681.16,710.14,797.43,647.64,913.97,585
			c-1.04-0.98-1.82-1.67-2.55-2.4c-52.22-51.69-104.44-103.38-156.67-155.06c-2.22-2.2-1.45-2.01-4.1-0.43
			c-38.15,22.73-76.27,45.52-114.45,68.22c-43.46,25.84-86.86,51.78-130.67,77.04c-7.62,4.39-15.76,7.74-24.27,10.08
			c-8.39,2.31-16.72,4.8-24.8,8.07c-8.62,3.49-16.93,7.54-24.26,13.36c-3.91,3.1-7.46,6.58-9.87,11
			c-5.31,9.74-5.41,20.79,3.43,29.77c2.14,2.17,4.43,4.16,6.86,5.98c5.89,4.43,12.21,8.19,18.6,11.81
			c11.96,6.76,23.99,13.39,35.92,20.2c10.48,5.97,20.95,11.98,30.88,18.85c11.43,7.91,21.96,16.84,30.53,27.87
			C558.39,741.98,565.29,755.79,564.57,772.81z M20.42,583.59c0.76,0.76,1.76,1.1,2.67,1.58
			c118.79,63.06,237.58,126.1,356.36,189.16c8.46,4.49,16.89,9.06,25.34,13.59c2.68,1.44,5.38,2.83,8.34,3.6
			c2.35,0.61,3.88-0.05,4.58-2.25c1.73-5.41,3.25-10.89,3.36-16.62c0.09-4.54-1.21-8.84-3.03-12.97c-1.84-4.17-4.27-8.05-6.3-12.12
			c-4.62-9.25-10.81-17.32-18.07-24.63c-6.49-6.52-13.34-12.66-20.18-18.8c-8.98-8.07-18.04-16.06-26.54-24.64
			c-6.03-6.08-11.8-12.39-16.72-19.43c-3.44-4.94-6.39-10.12-8.14-15.93c-2.58-8.54-1.35-16.4,4-23.6
			c3.46-4.66,7.52-8.7,12.06-12.29c8.34-6.58,17.61-11.58,27.32-15.77c20.72-8.92,42.4-14.52,64.59-18.3
			c0.67-0.11,1.44,0.03,2.03-0.76c-2.71-1.59-5.38-3.16-8.06-4.73c-81.51-47.66-163.02-95.32-244.53-142.97
			c-2.36-1.38-1.68-1.42-3.7,0.52c-0.06,0.06-0.11,0.11-0.17,0.17C124.39,478.19,73.16,529.98,21.94,581.77
			C21.39,582.32,20.68,582.77,20.42,583.59z M538.49,116.01c-0.47,0.3-0.36,0.73-0.27,1.09c0.7,2.53,1.36,5.07,2.06,7.59
			c1.63,5.85,2.78,11.79,3.92,17.73c1.72,8.94,2.96,17.96,3.92,27.01c0.85,8.03,1.21,16.09,1.41,24.16
			c0.24,9.51-0.01,19.03-0.9,28.51c-0.38,3.97-0.83,7.96-1.64,11.86c-1.09,5.23-2.36,10.42-3.84,15.57
			c-2.16,7.52-4.81,14.85-7.76,22.08c-3.26,7.98-6.98,15.74-10.79,23.46c-3.39,6.87-7.09,13.57-10.6,20.36
			c-4.18,8.08-8.62,16.02-12.87,24.06c-2.83,5.35-5.51,10.78-8.1,16.26c-2.7,5.71-5.24,11.48-7.35,17.42
			c-2.17,6.09-3.77,12.35-5.03,18.71c-1.29,6.53-2.15,13.09-2.41,19.72c-0.54,13.68,0.25,27.28,2.58,40.81
			c0.93,5.43,1.98,10.83,3.04,16.22c0.53,2.66,1.35,5.26,1.89,7.91c1.15,5.72,2.79,11.29,4.46,16.86c0.42,1.41,0.87,1.51,1.96,0.4
			c1.97-1.99,4.04-3.9,6.19-5.64c6.55-5.3,12.19-11.48,17.88-17.61c6.74-7.24,13.08-14.82,18.97-22.8
			c2.75-3.73,5.49-7.45,8.13-11.26c4-5.78,7.83-11.69,11.2-17.85c3.6-6.57,7.51-12.98,10.44-19.91c1.46-3.45,3.32-6.74,4.67-10.23
			c2.4-6.17,4.8-12.33,6.9-18.62c2.05-6.13,3.89-12.32,5.41-18.59c1.35-5.57,2.6-11.18,3.49-16.86c1.23-7.81,2.54-15.6,3-23.51
			c0.54-9.17,1.08-18.33,0.6-27.54c-0.47-8.86-0.88-17.71-2.18-26.49c-0.88-5.92-1.76-11.84-3-17.7c-0.51-2.42-1.13-4.81-1.71-7.22
			c-0.74-3.09-1.24-6.24-2.18-9.29c-0.45-1.44-0.97-2.96-0.34-4.47c0.56-0.02,0.76,0.24,0.88,0.53c1.2,2.96,2.62,5.85,3.52,8.89
			c2.19,7.33,4.3,14.69,6.01,22.15c1.09,4.75,2.39,9.46,3.12,14.26c0.71,4.65,1.65,9.26,2.34,13.92c1.06,7.2,1.83,14.43,2.5,21.66
			c0.8,8.6,0.66,17.25,0.65,25.88c-0.02,10.65-0.95,21.23-2.43,31.75c-0.7,4.97-1.51,9.93-2.66,14.84c-0.65,2.8-1.12,5.64-1.79,8.43
			c-2.03,8.46-4.75,16.7-7.71,24.87c-2.28,6.3-4.97,12.45-7.95,18.46c-3.15,6.36-6.41,12.66-10.2,18.68
			c-3.15,4.99-6.32,9.97-9.81,14.72c-5.49,7.47-11.31,14.66-17.7,21.39c-5.94,6.26-11.91,12.48-18.62,17.95
			c-0.57,0.47-1.3,0.9-1.2,2c3.3-0.36,6.31-1.53,9.27-2.52c3.53-1.18,7.08-2.4,10.56-3.81c4.06-1.65,8.06-3.45,12-5.32
			c7.36-3.48,14.34-7.7,21.04-12.32c8.84-6.08,17-13.01,24.4-20.78c8.55-8.98,16.06-18.76,22.45-29.43
			c4.97-8.32,9.16-16.98,12.79-25.94c2.97-7.34,5.46-14.84,7.21-22.54c1.13-4.97,2.21-9.96,3.05-15.01
			c1.1-6.56,1.65-13.16,2.02-19.76c0.46-8.14-0.06-16.28-0.95-24.41c-0.45-4.06-1.43-8.01-1.87-12.07c-0.55-5-1.1-10.02-2.09-14.94
			c-1.68-8.36-4.04-16.54-6.92-24.59c-3.27-9.1-7.02-17.99-11.12-26.73c-3.79-8.08-8.08-15.93-12.48-23.7
			c-4.4-7.76-8.93-15.45-13.75-22.96c-3.49-5.45-7.01-10.88-10.67-16.21c-3.93-5.72-7.94-11.39-12-17.02
			c-4.24-5.89-8.63-11.66-12.94-17.5c-3.12-4.24-6.47-8.31-9.72-12.45c-3-3.83-6.19-7.5-9.05-11.45
			C539.51,116.68,539.26,115.99,538.49,116.01z M632.46,787.4c0.04,0.06,0.08,0.11,0.11,0.17c0.31-0.04,0.62-0.06,0.93-0.12
			c17.67-3.24,35.33-6.5,53-9.73c25.76-4.71,51.52-9.39,77.27-14.1c25.29-4.62,50.57-9.26,75.85-13.9s50.57-9.27,75.85-13.9
			c2.43-0.45,4.87-0.89,7.3-1.37c1.21-0.24,1.29-0.51,0.55-1.55c-0.09-0.13-0.2-0.25-0.31-0.37c-9.78-11.73-19.56-23.45-29.31-35.2
			c-0.9-1.09-1.66-1.35-3.04-0.84c-6.82,2.49-13.7,4.86-20.55,7.27c-74.49,26.21-148.99,52.43-223.48,78.65
			C641.91,784.06,637.19,785.73,632.46,787.4z M9.03,735.9c97.35,17.84,194.65,35.66,291.67,53.43c-0.79-0.46-1.88-0.91-2.99-1.3
			c-22.38-7.86-44.76-15.73-67.14-23.6c-62.31-21.93-124.61-43.86-186.91-65.79c-3.1-1.09-3.09-1.08-5.11,1.34
			c-9.36,11.25-18.73,22.48-28.09,33.73C9.96,734.3,9.31,734.81,9.03,735.9z"/>
		<path class="st1" d="M467.6,7c0.48,1.62,1.47,2.98,2.27,4.44c3.82,7,7.63,14,11.36,21.04c3.77,7.11,7.08,14.45,10.55,21.7
			c2.55,5.33,4.8,10.78,7.1,16.2c1.92,4.53,3.67,9.16,5.44,13.77c1.34,3.49,2.56,7.03,3.81,10.53c2.35,6.59,4.4,13.31,6.25,20.07
			c1.34,4.9,2.71,9.81,3.68,14.82c1.37,7.1,3.07,14.14,4.05,21.3c0.69,5.04,1.37,10.09,1.75,15.19c0.65,8.68,1.12,17.36,0.88,26.06
			c-0.21,7.64-0.73,15.26-1.74,22.86c-0.88,6.64-1.88,13.25-3.51,19.74c-1.4,5.54-2.58,11.14-4.52,16.56
			c-1.12,3.13-2.07,6.34-3.17,9.49c-1.59,4.59-3.46,9.07-5.42,13.51c-3.32,7.51-7.05,14.8-11.04,21.98
			c-3.22,5.78-6.43,11.56-10.32,16.92c-2.43,3.36-4.03,7.2-6.44,10.57c-2.97,4.15-5.5,8.58-8.12,12.95
			c-4.29,7.19-8.23,14.55-11.29,22.36c-3.14,8.02-5.64,16.21-7.59,24.6c-1.15,4.97-2.2,9.96-2.77,15.02
			c-0.67,5.93-1.56,11.85-1.44,17.85c0.07,3.92-0.16,7.84,0.14,11.75c0.29,3.89,0.95,7.75,1.18,11.63c0.25,4.1,1.3,8.02,2.09,11.99
			c1.44,7.27,3.59,14.36,6.12,21.34c2.04,5.63,4.46,11.09,7.01,16.48c1.63,3.45,3.59,6.75,5.51,10.06c0.83,1.44,1.36,3.04,2.52,4.32
			c0.83,0.91,0.33,1.88-0.94,1.95c-1.75,0.1-3.51,0.02-5.27,0.01c-4.95-0.04-9.91,0.03-14.86-0.15c-2.69-0.1-5.37-0.64-8.06-0.93
			c-5.63-0.6-11.2-1.51-16.71-2.81c-7.91-1.85-15.79-3.79-23.43-6.64c-2.82-1.05-5.74-1.89-8.54-3.02
			c-5.68-2.29-11.26-4.83-16.69-7.68c-3.74-1.96-7.45-3.97-11.01-6.22c-5.58-3.54-11.13-7.15-16.22-11.38
			c-7.37-6.13-14.36-12.65-20.56-20.01c-3.8-4.52-7.39-9.2-10.81-14c-2.11-2.97-3.91-6.18-5.77-9.33c-1.63-2.75-3.22-5.52-4.61-8.38
			c-1.94-4-3.89-8-5.55-12.14c-1.33-3.31-2.7-6.61-3.89-9.98c-2.21-6.23-4.02-12.57-5.7-18.97c-2.05-7.82-2.76-15.84-4.03-23.77
			c-0.35-2.19-0.23-4.46-0.22-6.7c0.02-6.71,0.01-13.43,0.18-20.14c0.07-2.69,0.66-5.37,0.88-8.07c0.34-4.22,1.36-8.32,2.09-12.47
			c0.56-3.2,1.55-6.33,2.49-9.46c1.07-3.59,2.15-7.16,3.4-10.69c1.58-4.43,3.3-8.8,5.31-13.05c2.8-5.91,5.78-11.71,9.11-17.35
			c3.37-5.72,7.27-11.07,11.26-16.35c1.15-1.53,2.52-2.87,3.82-4.27c1.32-1.42,2.21-3.22,3.57-4.7c2.54-2.77,5.1-5.49,7.84-8.06
			c1.91-1.79,3.42-3.99,5.36-5.78c2.4-2.21,4.67-4.53,7.24-6.57c1.66-1.32,2.99-3.06,4.55-4.55c2.2-2.09,4.35-4.28,6.77-6.07
			c2.19-1.62,3.75-3.8,5.81-5.5c2.03-1.67,3.84-3.61,5.85-5.3c4.57-3.86,8.79-8.09,13.07-12.24c5.31-5.16,10.43-10.55,15.33-16.09
			c3.79-4.29,7.42-8.75,10.94-13.26c1.97-2.52,3.52-5.48,5.39-8.14c3.67-5.23,6.64-10.88,9.95-16.33c2.49-4.1,4.48-8.44,6.82-12.61
			c1.17-2.08,2.12-4.29,3.06-6.49c2.52-5.84,5.09-11.67,7.45-17.57c1.92-4.8,3.63-9.67,5.27-14.58c2.63-7.86,5.04-15.79,7.08-23.81
			c0.9-3.54,1.88-7.07,2.54-10.69c0.48-2.64,0.93-5.33,1.7-7.91c1.12-3.77,1.25-7.7,2.05-11.52c0.51-2.42,0.98-4.84,0.89-7.34
			C466.64,7,467.12,7,467.6,7z M386.03,467.51c-0.14-1.15-0.76-1.88-1.41-2.58c-4.25-4.58-7.58-9.86-11.03-15.02
			c-3.1-4.63-5.96-9.43-8.64-14.33c-2.56-4.69-4.91-9.48-7.09-14.36c-1.59-3.56-2.98-7.21-4.37-10.86
			c-1.96-5.15-3.44-10.43-5.04-15.69c-1.7-5.59-2.94-11.27-3.78-17.01c-0.76-5.19-1.83-10.33-1.96-15.63
			c-0.11-4.21-0.63-8.41-0.72-12.63c-0.13-6.3,0.39-12.58,0.71-18.87c0.26-5.04,1.05-9.99,1.77-14.94c1-6.84,2.3-13.65,4.13-20.34
			c0.54-1.98,1.23-3.94,1.69-5.92c0.99-4.28,2.34-8.45,3.74-12.58c2.11-6.25,4.35-12.49,7.15-18.49c1.69-3.61,2.95-7.41,4.79-10.96
			c2.87-5.51,5.61-11.09,8.58-16.56c4.92-9.03,10.41-17.68,16.09-26.22c3.31-4.98,6.62-9.97,10.55-14.51
			c1.87-2.16,3.51-4.53,5.23-6.83c0.31-0.41,0.83-0.81,0.36-1.45c-1.06-0.16-1.6,0.6-2.21,1.2c-3.66,3.55-7.27,7.14-10.96,10.66
			c-3.46,3.3-6.97,6.53-10.48,9.77c-5.04,4.66-10.09,9.3-15.14,13.95c-4.99,4.6-9.7,9.49-14.37,14.41
			c-3.18,3.36-6.41,6.71-9.25,10.35c-3.27,4.2-6.78,8.21-9.81,12.62c-1.8,2.63-3.54,5.3-5.35,7.93c-1.26,1.83-2.44,3.73-3.57,5.65
			c-2.65,4.55-4.97,9.28-7.1,14.08c-1.48,3.34-2.96,6.7-4.1,10.2c-1.31,4.02-2.52,8.06-3.51,12.15c-0.81,3.32-1.61,6.67-2.03,10.06
			c-0.79,6.48-1.6,12.97-1.62,19.52c-0.01,3.83,0.09,7.65,0.38,11.47c0.24,3.18,0.76,6.32,1.02,9.5c0.34,4.22,1.27,8.34,2.12,12.47
			c0.71,3.42,1.64,6.81,2.66,10.15c1.6,5.24,3.43,10.4,5.55,15.47c2.43,5.81,4.95,11.56,7.95,17.11c2.92,5.42,6.13,10.66,9.78,15.57
			c4.79,6.44,9.74,12.81,15.84,18.11c3.83,3.33,7.25,7.05,11.45,10.04c6.25,4.44,12.63,8.64,19.14,12.66
			C384,467.32,384.79,467.97,386.03,467.51z"/>
		<path class="st2" d="M564.57,772.81c0.72-17.02-6.18-30.83-16.01-43.48c-8.57-11.02-19.1-19.96-30.53-27.87
			c-9.93-6.87-20.4-12.88-30.88-18.85c-11.94-6.8-23.97-13.43-35.92-20.2c-6.4-3.62-12.71-7.38-18.6-11.81
			c-2.43-1.83-4.72-3.81-6.86-5.98c-8.84-8.98-8.74-20.03-3.43-29.77c2.41-4.42,5.95-7.9,9.87-11c7.34-5.81,15.65-9.87,24.26-13.36
			c8.08-3.27,16.41-5.76,24.8-8.07c8.51-2.34,16.65-5.68,24.27-10.08c43.8-25.26,87.21-51.19,130.67-77.04
			c38.17-22.7,76.29-45.49,114.45-68.22c2.65-1.58,1.87-1.77,4.1,0.43c52.23,51.68,104.44,103.37,156.67,155.06
			c0.74,0.73,1.51,1.42,2.55,2.4C797.43,647.64,681.16,710.14,564.57,772.81z"/>
		<path class="st2" d="M20.42,583.59c0.26-0.82,0.97-1.27,1.52-1.82c51.22-51.79,102.45-103.57,153.68-155.36
			c0.06-0.06,0.11-0.11,0.17-0.17c2.02-1.95,1.34-1.9,3.7-0.52c81.51,47.65,163.02,95.31,244.53,142.97
			c2.68,1.57,5.35,3.14,8.06,4.73c-0.59,0.8-1.36,0.65-2.03,0.76c-22.19,3.78-43.86,9.38-64.59,18.3
			c-9.71,4.18-18.98,9.18-27.32,15.77c-4.54,3.58-8.6,7.63-12.06,12.29c-5.35,7.21-6.58,15.06-4,23.6c1.75,5.81,4.7,11,8.14,15.93
			c4.91,7.04,10.68,13.35,16.72,19.43c8.51,8.58,17.56,16.57,26.54,24.64c6.84,6.14,13.69,12.28,20.18,18.8
			c7.27,7.3,13.46,15.37,18.07,24.63c2.03,4.07,4.46,7.95,6.3,12.12c1.83,4.13,3.12,8.42,3.03,12.97
			c-0.11,5.72-1.63,11.21-3.36,16.62c-0.71,2.2-2.23,2.86-4.58,2.25c-2.96-0.76-5.66-2.16-8.34-3.6
			c-8.44-4.53-16.87-9.1-25.34-13.59c-118.79-63.06-237.58-126.1-356.36-189.16C22.18,584.69,21.18,584.35,20.42,583.59z"/>
		<path class="st3" d="M538.49,116.01c0.77-0.03,1.01,0.67,1.36,1.15c2.85,3.94,6.05,7.62,9.05,11.45
			c3.25,4.14,6.59,8.21,9.72,12.45c4.3,5.84,8.69,11.62,12.94,17.5c4.06,5.63,8.07,11.3,12,17.02c3.66,5.33,7.18,10.76,10.67,16.21
			c4.82,7.51,9.35,15.2,13.75,22.96c4.4,7.77,8.69,15.61,12.48,23.7c4.09,8.74,7.85,17.63,11.12,26.73
			c2.89,8.04,5.24,16.23,6.92,24.59c0.99,4.92,1.54,9.94,2.09,14.94c0.45,4.05,1.43,8.01,1.87,12.07
			c0.89,8.12,1.41,16.27,0.95,24.41c-0.37,6.6-0.92,13.2-2.02,19.76c-0.85,5.05-1.93,10.04-3.05,15.01
			c-1.75,7.7-4.24,15.2-7.21,22.54c-3.63,8.97-7.82,17.63-12.79,25.94c-6.38,10.67-13.89,20.45-22.45,29.43
			c-7.4,7.77-15.56,14.69-24.4,20.78c-6.71,4.62-13.68,8.84-21.04,12.32c-3.95,1.87-7.94,3.66-12,5.32
			c-3.47,1.42-7.03,2.63-10.56,3.81c-2.96,0.99-5.97,2.16-9.27,2.52c-0.1-1.1,0.63-1.53,1.2-2c6.71-5.46,12.68-11.68,18.62-17.95
			c6.39-6.74,12.21-13.93,17.7-21.39c3.49-4.75,6.67-9.73,9.81-14.72c3.79-6.02,7.05-12.32,10.2-18.68
			c2.97-6.01,5.67-12.15,7.95-18.46c2.96-8.17,5.69-16.41,7.71-24.87c0.67-2.79,1.14-5.64,1.79-8.43c1.14-4.9,1.96-9.86,2.66-14.84
			c1.48-10.53,2.42-21.11,2.43-31.75c0.01-8.63,0.15-17.28-0.65-25.88c-0.67-7.23-1.44-14.46-2.5-21.66
			c-0.68-4.66-1.62-9.27-2.34-13.92c-0.74-4.8-2.04-9.52-3.12-14.26c-1.71-7.46-3.82-14.82-6.01-22.15
			c-0.91-3.04-2.33-5.94-3.52-8.89c-0.12-0.29-0.32-0.55-0.88-0.53c-0.63,1.51-0.11,3.02,0.34,4.47c0.94,3.05,1.44,6.2,2.18,9.29
			c0.58,2.4,1.2,4.8,1.71,7.22c1.24,5.86,2.12,11.78,3,17.7c1.3,8.79,1.71,17.64,2.18,26.49c0.49,9.21-0.05,18.36-0.6,27.54
			c-0.47,7.91-1.78,15.7-3,23.51c-0.89,5.68-2.14,11.28-3.49,16.86c-1.52,6.27-3.36,12.46-5.41,18.59c-2.1,6.28-4.5,12.45-6.9,18.62
			c-1.36,3.49-3.21,6.78-4.67,10.23c-2.93,6.93-6.84,13.34-10.44,19.91c-3.37,6.16-7.2,12.07-11.2,17.85
			c-2.64,3.8-5.38,7.53-8.13,11.26c-5.88,7.98-12.23,15.56-18.97,22.8c-5.7,6.13-11.34,12.31-17.88,17.61
			c-2.15,1.74-4.23,3.65-6.19,5.64c-1.09,1.1-1.53,1.01-1.96-0.4c-1.67-5.57-3.31-11.14-4.46-16.86c-0.53-2.65-1.36-5.24-1.89-7.91
			c-1.07-5.4-2.11-10.8-3.04-16.22c-2.32-13.53-3.12-27.13-2.58-40.81c0.26-6.62,1.13-13.19,2.41-19.72
			c1.26-6.36,2.86-12.62,5.03-18.71c2.11-5.94,4.65-11.71,7.35-17.42c2.59-5.48,5.27-10.91,8.1-16.26
			c4.25-8.04,8.69-15.98,12.87-24.06c3.52-6.8,7.22-13.5,10.6-20.36c3.81-7.73,7.53-15.49,10.79-23.46
			c2.95-7.23,5.6-14.55,7.76-22.08c1.48-5.15,2.75-10.34,3.84-15.57c0.81-3.9,1.26-7.89,1.64-11.86c0.9-9.48,1.14-19,0.9-28.51
			c-0.2-8.06-0.56-16.13-1.41-24.16c-0.96-9.05-2.21-18.07-3.92-27.01c-1.14-5.94-2.3-11.88-3.92-17.73
			c-0.7-2.52-1.37-5.06-2.06-7.59C538.13,116.74,538.02,116.31,538.49,116.01z"/>
		<path class="st4" d="M624.87,762.39c8.76-4.62,17.51-9.25,26.29-13.85c78.33-41.01,156.67-82.02,235.02-123.01
			c0.89-0.47,1.81-1.51,2.69-1.23c0.86,0.27,1.47,1.39,2.15,2.17c10.39,11.84,20.77,23.68,31.15,35.52c0.36,0.41,0.7,0.85,1.06,1.3
			c-0.53,0.83-1.41,0.82-2.12,1.05c-73.74,24.64-147.49,49.26-221.24,73.87c-24.23,8.09-48.47,16.16-72.71,24.24
			c-0.3,0.1-0.61,0.17-0.92,0.26C625.76,762.68,625.25,762.81,624.87,762.39z"/>
		<path class="st4" d="M308.97,765.11c-12.2-4.05-24.4-8.08-36.59-12.14c-86.09-28.73-172.18-57.46-258.26-86.2
			c-0.9-0.3-1.8-0.64-2.7-0.96c0.83-1.85,25.46-30.29,34.21-39.54c2.98,1.56,6,3.13,9.01,4.71
			c83.92,43.93,167.83,87.87,251.75,131.81c0.71,0.37,1.4,0.77,2.1,1.15c0,0,0.05,0.14,0.05,0.14l0.15,0c0.12,0,0.21,0.05,0.27,0.15
			c0.09,0.35,0.32,0.45,0.66,0.35c0.12-0.01,0.21,0.03,0.27,0.13C309.66,765.03,309.31,765.07,308.97,765.11z"/>
		<path class="st5" d="M632.46,787.4c4.73-1.67,9.45-3.34,14.18-5c74.49-26.22,148.99-52.43,223.48-78.65
			c6.85-2.41,13.73-4.78,20.55-7.27c1.38-0.5,2.14-0.25,3.04,0.84c9.74,11.76,19.53,23.47,29.31,35.2c0.1,0.12,0.21,0.24,0.31,0.37
			c0.75,1.04,0.67,1.31-0.55,1.55c-2.43,0.48-4.86,0.92-7.3,1.37c-25.28,4.64-50.57,9.27-75.85,13.9s-50.57,9.28-75.85,13.9
			c-25.76,4.71-51.52,9.39-77.27,14.1c-17.67,3.23-35.33,6.49-53,9.73c-0.31,0.06-0.62,0.08-0.93,0.12
			C632.53,787.51,632.5,787.45,632.46,787.4z"/>
		<path class="st5" d="M9.03,735.9c0.28-1.09,0.93-1.6,1.43-2.2c9.36-11.25,18.73-22.49,28.09-33.73c2.02-2.42,2.01-2.43,5.11-1.34
			c62.3,21.93,124.61,43.86,186.91,65.79c22.38,7.88,44.76,15.74,67.14,23.6c1.11,0.39,2.2,0.85,2.99,1.3
			C203.67,771.56,106.38,753.74,9.03,735.9z"/>
		<path class="st5" d="M624.87,762.39c0.38,0.42,0.89,0.28,1.36,0.32c-1.41,0.76-2.94,1.12-4.51,1.43
			C622.68,763.39,623.7,762.75,624.87,762.39z"/>
		<path class="st5" d="M308.97,765.11c0.34-0.04,0.69-0.07,0.92-0.39c1.27,0.28,2.24,1.14,3.75,1.95
			C311.78,766.14,310.29,765.89,308.97,765.11z"/>
		<path class="st5" d="M309.62,764.58c-0.34,0.1-0.57,0-0.66-0.35C309.26,764.19,309.5,764.27,309.62,764.58z"/>
		<polygon class="st5" points="308.68,764.09 308.53,764.08 308.48,763.94 308.64,763.93 		"/>
		<path class="st0" d="M386.03,467.51c-1.23,0.46-2.02-0.19-2.81-0.68c-6.51-4.02-12.9-8.22-19.14-12.66
			c-4.2-2.99-7.62-6.71-11.45-10.04c-6.1-5.31-11.05-11.67-15.84-18.11c-3.65-4.91-6.86-10.15-9.78-15.57
			c-3-5.56-5.52-11.3-7.95-17.11c-2.12-5.07-3.95-10.23-5.55-15.47c-1.02-3.34-1.95-6.73-2.66-10.15
			c-0.86-4.12-1.78-8.24-2.12-12.47c-0.26-3.17-0.77-6.31-1.02-9.5c-0.29-3.83-0.39-7.64-0.38-11.47
			c0.02-6.55,0.82-13.04,1.62-19.52c0.41-3.39,1.22-6.73,2.03-10.06c0.99-4.1,2.2-8.14,3.51-12.15c1.14-3.5,2.62-6.86,4.1-10.2
			c2.13-4.8,4.45-9.54,7.1-14.08c1.12-1.92,2.3-3.82,3.57-5.65c1.81-2.63,3.54-5.3,5.35-7.93c3.02-4.41,6.53-8.42,9.81-12.62
			c2.84-3.64,6.06-6.99,9.25-10.35c4.67-4.92,9.38-9.81,14.37-14.41c5.05-4.65,10.1-9.29,15.14-13.95
			c3.51-3.24,7.03-6.47,10.48-9.77c3.69-3.52,7.3-7.11,10.96-10.66c0.61-0.59,1.16-1.36,2.21-1.2c0.47,0.64-0.05,1.04-0.36,1.45
			c-1.72,2.29-3.36,4.66-5.23,6.83c-3.93,4.54-7.24,9.53-10.55,14.51c-5.69,8.54-11.17,17.2-16.09,26.22
			c-2.98,5.46-5.72,11.04-8.58,16.56c-1.84,3.54-3.1,7.34-4.79,10.96c-2.8,6-5.04,12.23-7.15,18.49c-1.39,4.13-2.74,8.31-3.74,12.58
			c-0.46,1.98-1.15,3.94-1.69,5.92c-1.83,6.69-3.13,13.5-4.13,20.34c-0.72,4.95-1.51,9.9-1.77,14.94
			c-0.33,6.29-0.84,12.57-0.71,18.87c0.09,4.22,0.61,8.43,0.72,12.63c0.14,5.3,1.21,10.45,1.96,15.63
			c0.84,5.74,2.08,11.43,3.78,17.01c1.6,5.26,3.08,10.54,5.04,15.69c1.39,3.65,2.77,7.29,4.37,10.86c2.18,4.88,4.53,9.67,7.09,14.36
			c2.68,4.9,5.54,9.7,8.64,14.33c3.45,5.16,6.78,10.43,11.03,15.02C385.27,465.63,385.88,466.36,386.03,467.51z"/>
	</g>
</g>
</svg>
